<svg width="0" height="0" class="hidden">
  <symbol xmlns="http://www.w3.org/2000/svg" viewBox="0 0 19 17" id="heart">
    <path d="M17.242 1.465c-1.933-1.653-4.781-1.336-6.574.492L10 2.66l-.703-.703C7.539.129 4.657-.187 2.723 1.465.508 3.363.403 6.738 2.37 8.777l6.82 7.032c.422.457 1.16.457 1.582 0l6.82-7.032c1.97-2.039 1.864-5.414-.35-7.312z"></path>
  </symbol>
  <symbol xmlns="http://www.w3.org/2000/svg" viewBox="0 0 14 14" id="arrow-next">
    <path d="M5.938 1.094c-.313.312-.282.781 0 1.093l3.78 3.563H.75A.74.74 0 000 6.5v1c0 .438.313.75.75.75h8.969l-3.781 3.594a.814.814 0 000 1.094l.687.687c.313.281.781.281 1.063 0l6.093-6.094c.281-.281.281-.75 0-1.062L7.687.406c-.28-.281-.75-.281-1.062 0l-.688.688z"></path>
  </symbol>
  <symbol xmlns="http://www.w3.org/2000/svg" viewBox="0 0 15 14" id="arrow-prev">
    <path d="M8.317 12.938c.312-.313.281-.782 0-1.094L4.536 8.25h9a.74.74 0 00.75-.75v-1a.76.76 0 00-.75-.75h-9l3.781-3.563c.281-.312.312-.78 0-1.093L7.629.406a.774.774 0 00-1.062 0L.504 6.5a.684.684 0 000 1.031l6.063 6.094c.281.281.75.281 1.062 0l.688-.688z" ></path>
  </symbol>
<symbol xmlns="http://www.w3.org/2000/svg" viewBox="0 0 30 35" id="play">
    <path d="M28.281 14.527L4.906.715C2.98-.415.125.715.125 3.438v27.625c0 2.523 2.656 4.05 4.781 2.789l23.375-13.813c2.059-1.262 2.059-4.25 0-5.512z"></path>
  </symbol>
</svg>